<?xml version="1.0" standalone="no"?>
<!DOCTYPE svg PUBLIC "-//W3C//DTD SVG 20010904//EN"
 "http://www.w3.org/TR/2001/REC-SVG-20010904/DTD/svg10.dtd">
<svg version="1.0"
        xmlns="http://www.w3.org/2000/svg" width="92.000000pt" height="73.000000pt" viewBox="0 0 92.000000 73.000000" preserveAspectRatio="xMidYMid meet">

        <g transform="translate(0.000000,73.000000) scale(0.100000,-0.100000)" fill="#218d87" stroke="none">
                <path d="M267 472 c-125 -125 -227 -235 -227 -244 0 -9 16 -30 35 -47 27 -24
40 -29 53 -22 27 15 462 456 462 468 0 22 -52 73 -74 73 -15 0 -91 -69 -249
-228z"/>
                <path d="M547 442 c-15 -15 -27 -35 -27 -43 0 -16 289 -309 306 -309 17 0 64
55 64 76 0 23 -278 304 -301 304 -8 0 -27 -13 -42 -28z"/>
                <path d="M318 213 c-60 -60 -114 -116 -119 -125 -7 -13 -2 -26 22 -53 17 -19
36 -35 42 -35 6 0 45 34 88 75 42 41 81 75 86 75 5 0 38 -29 73 -65 35 -36 72
-65 80 -65 9 0 31 16 50 35 l34 35 -114 115 c-63 63 -119 115 -124 115 -5 0
-58 -48 -118 -107z"/>
        </g>
</svg>
