<?xml version="1.0"?>
<svg width="640" height="480" xmlns="http://www.w3.org/2000/svg" xmlns:svg="http://www.w3.org/2000/svg" xmlns:xlink="http://www.w3.org/1999/xlink">
 <!-- Created with SVG-edit - https://github.com/SVG-Edit/svgedit-->
 <defs>
  <symbol id="svg_1" version="1.1" viewBox="0 0 550 470" xmlns="http://www.w3.org/2000/svg" xmlns:mydata="http://www.w3.org/2000/svg" xmlns:xlink="http://www.w3.org/1999/xlink">
   <g fill="#218d87" fill-rule="none" font-family="none" font-size="none" font-weight="none" stroke-dashoffset="0" stroke-miterlimit="10" text-anchor="none">
    <g data-paper-data="{&quot;isGlobalGroup&quot;:true,&quot;bounds&quot;:{&quot;x&quot;:65.00000000000001,&quot;y&quot;:180.38547727332232,&quot;width&quot;:420,&quot;height&quot;:109.22904545335533}}">
     <g data-paper-data="{&quot;isPrimaryText&quot;:true}">
      <path d="m89.46,250.27l-0.28,0l-8.29,-51.68l-15.89,0l0,72.82l9.95,0l0,-51.54l0.28,0l8.29,51.54l10.77,0l7.74,-52.23l0.14,0l0,52.23l10.78,0l0,-72.82l-15.89,0l-7.6,51.68z" data-paper-data="{&quot;glyphName&quot;:&quot;M&quot;,&quot;glyphIndex&quot;:0,&quot;firstGlyphOfWord&quot;:true,&quot;word&quot;:1}" fill-rule="nonzero"/>
      <path d="m153.99,198.73l-31.09,0l0,72.68l31.09,0l0,-10.5l-19.63,0l0,-21.28l15.62,0l0,-10.36l-15.62,0l0,-20.18l19.63,0l0,-10.36z" data-paper-data="{&quot;glyphName&quot;:&quot;E&quot;,&quot;glyphIndex&quot;:1,&quot;word&quot;:1}" fill-rule="nonzero"/>
      <path d="m163.11,198.73l0,72.68l18.1,0c11.33,0 16.99,-6.36 16.99,-17.96l0,-36.76c0,-11.74 -5.66,-17.96 -16.99,-17.96l-18.1,0zm23.62,55.13c0,5.25 -2.21,7.05 -5.8,7.05l-6.36,0l0,-51.82l6.36,0c3.59,0 5.8,1.8 5.8,7.05l0,37.72z" data-paper-data="{&quot;glyphName&quot;:&quot;D&quot;,&quot;glyphIndex&quot;:2,&quot;lastGlyphOfWord&quot;:true,&quot;word&quot;:1}" fill-rule="nonzero"/>
      <path d="m308.96,258.01l-0.14,0l-8.7,-59.42l-11.47,0l11.19,72.82l17.14,0l11.19,-72.82l-10.5,0l-8.71,59.42z" data-paper-data="{&quot;glyphName&quot;:&quot;V&quot;,&quot;glyphIndex&quot;:3,&quot;firstGlyphOfWord&quot;:true,&quot;word&quot;:2}" fill-rule="nonzero"/>
      <path d="m341.16,198.59l-11.61,72.68l10.5,0l1.94,-13.13l14.09,0l1.94,13.13l11.46,0l-11.6,-72.68l-16.72,0zm7.74,12.99l0.13,0l5.53,36.75l-11.05,0l5.39,-36.75z" data-paper-data="{&quot;glyphName&quot;:&quot;A&quot;,&quot;glyphIndex&quot;:4,&quot;word&quot;:2}" fill-rule="nonzero"/>
      <path d="m399.74,254c0,5.11 -2.21,7.05 -5.8,7.05c-3.59,0 -5.8,-1.94 -5.8,-7.05l0,-55.27l-11.33,0l0,54.58c0,11.47 5.66,18.1 16.85,18.1c11.06,0 16.72,-6.63 16.72,-18.1l0,-54.58l-10.64,0l0,55.27z" data-paper-data="{&quot;glyphName&quot;:&quot;U&quot;,&quot;glyphIndex&quot;:5,&quot;word&quot;:2}" fill-rule="nonzero"/>
      <path d="m431.66,198.59l-11.47,0l0,72.82l30.27,0l0,-10.5l-18.8,0l0,-62.32z" data-paper-data="{&quot;glyphName&quot;:&quot;L&quot;,&quot;glyphIndex&quot;:6,&quot;word&quot;:2}" fill-rule="nonzero"/>
      <path d="m449.63,208.95l11.88,0l0,62.46l11.47,0l0,-62.46l12.02,0l0,-10.36l-35.37,0l0,10.36z" data-paper-data="{&quot;glyphName&quot;:&quot;T&quot;,&quot;glyphIndex&quot;:7,&quot;lastGlyphOfWord&quot;:true,&quot;word&quot;:2}" fill-rule="nonzero"/>
      <g data-paper-data="{&quot;fillRule&quot;:&quot;evenodd&quot;,&quot;fillRuleOriginal&quot;:&quot;evenodd&quot;,&quot;isIcon&quot;:true,&quot;iconStyle&quot;:&quot;icon-in-text&quot;,&quot;selectedEffects&quot;:{&quot;container&quot;:&quot;&quot;,&quot;transformation&quot;:&quot;&quot;,&quot;pattern&quot;:&quot;&quot;},&quot;bounds&quot;:{&quot;x&quot;:213.19500474221837,&quot;y&quot;:180.38547727332232,&quot;width&quot;:60.46302812190942,&quot;height&quot;:109.22904545335533},&quot;iconType&quot;:&quot;icon&quot;,&quot;rawIconId&quot;:&quot;98677&quot;,&quot;combineTerms&quot;:&quot;lab&quot;,&quot;isDetailed&quot;:false,&quot;suitableAsStandaloneIcon&quot;:true}" fill-rule="evenodd">
       <path d="m256.57,185.22c0.45,0.54 1.08,0.81 1.9,0.81c1.86,0 2.96,-0.95 3.29,-2.85c0.14,-0.78 -0.01,-1.44 -0.46,-1.98c-0.44,-0.55 -1.05,-0.81 -1.83,-0.81c-1.9,0 -3.02,0.93 -3.34,2.79c-0.15,0.81 0,1.5 0.44,2.04zm-11.38,9.07c0.76,0.92 1.84,1.39 3.25,1.39c3.17,0 5.05,-1.63 5.63,-4.88c0.24,-1.33 -0.03,-2.46 -0.79,-3.39c-0.76,-0.92 -1.81,-1.38 -3.14,-1.38c-3.25,0 -5.16,1.59 -5.72,4.77c-0.25,1.4 0.01,2.57 0.77,3.49zm22.39,46.91c-3.52,-4.65 -8.39,-8.26 -13.85,-10.24l0,-18.58l0.25,0c3,0 5.44,-2.45 5.44,-5.46c0,-3 -2.44,-5.46 -5.44,-5.46l-21.11,0c-3,0 -5.44,2.46 -5.44,5.46c0,3.01 2.44,5.46 5.44,5.46l0.25,0l0,18.58c-5.46,1.98 -10.33,5.59 -13.84,10.24c-3.98,5.28 -6.08,11.56 -6.08,18.18c0,16.68 13.56,30.23 30.23,30.23c16.68,0 30.23,-13.55 30.23,-30.23c0,-6.62 -2.11,-12.9 -6.08,-18.18zm-34.71,-31c-1.81,0 -3.28,-1.47 -3.28,-3.28c0,-1.81 1.47,-3.28 3.28,-3.28l21.11,0c1.81,0 3.28,1.47 3.28,3.28c0,1.81 -1.47,3.28 -3.28,3.28l-21.11,0zm10.56,77.25c-15.51,0 -28.07,-12.57 -28.07,-28.07c0,-12.67 8.4,-23.38 19.94,-26.86l0,-20.14l16.25,0l0,20.14c11.54,3.48 19.94,14.19 19.94,26.86c0,15.5 -12.56,28.07 -28.06,28.07zm-19.36,-37.99c0.22,0.1 0.45,0.15 0.68,0.15c0.68,0 1.32,-0.4 1.6,-1.06c1.97,-4.63 6.11,-7.88 11.06,-8.7c0.95,-0.15 1.6,-1.05 1.44,-2c-0.16,-0.95 -1.05,-1.59 -2,-1.43c-6.14,1.01 -11.26,5.03 -13.7,10.77c-0.38,0.88 0.03,1.9 0.92,2.27zm35.31,20.26c0,-0.67 0.31,-1.26 0.8,-1.67c0.5,-0.44 1.19,-0.7 1.95,-0.7l3.65,0c0.77,-2.27 1.19,-4.7 1.21,-7.22l-4.86,0c-1.52,0 -2.75,-1.06 -2.75,-2.36c0,-0.66 0.31,-1.25 0.8,-1.68c0.5,-0.42 1.19,-0.68 1.95,-0.68l4.22,0c-2.8,-8.88 -14.32,-9.55 -24.09,-3.78c-3.97,2.34 -8.5,1.92 -12.44,1.56c-5.57,-0.52 -9.96,-0.93 -9.96,6.69c0,13.03 10.55,23.58 23.56,23.58c8.56,0 16.05,-4.57 20.18,-11.39l-1.47,0c-1.52,0 -2.75,-1.05 -2.75,-2.35z" data-paper-data="{&quot;isPathIcon&quot;:true}"/>
      </g>
     </g>
    </g>
   </g>
  </symbol>
 </defs>
 <g class="layer">
  <title>Layer 1</title>
  <use id="svg_2" transform="matrix(0.486332 0 0 0.494942 -108.969 -120.496)" x="423.44" xlink:href="#svg_1" y="314.24"/>
 </g>
</svg>